<?xml version="1.0" standalone="no"?><!DOCTYPE svg PUBLIC "-//W3C//DTD SVG 1.1//EN" "http://www.w3.org/Graphics/SVG/1.1/DTD/svg11.dtd"><svg t="1752718883865" class="icon" viewBox="0 0 1024 1024" version="1.1" xmlns="http://www.w3.org/2000/svg" p-id="4900" xmlns:xlink="http://www.w3.org/1999/xlink" width="200" height="200"><path d="M984.4736 737.8432h-49.28512V567.296c0-13.568 10.97728-24.576 24.51456-24.576h0.256a24.54528 24.54528 0 0 1 24.51456 24.576v170.5472z" fill="#5BA02E" p-id="4901"></path><path d="M1010.29888 779.30496H960.6144V689.7664a24.07424 24.07424 0 0 1 24.09472-24.064h1.49504c13.312 0 24.09472 10.78272 24.09472 24.064v89.5488zM936.37632 737.00352h-49.68448V640.2048c0-13.29152 10.752-24.064 24.00256-24.064h1.6896a24.03328 24.03328 0 0 1 23.99232 24.064v96.79872z" fill="#92C110" p-id="4902"></path><path d="M880.06656 879.84128c-5.34528 0-9.66656-4.11648-9.66656-9.19552V742.8096c0-5.07904 4.32128-9.19552 9.66656-9.19552h135.0144c5.33504 0 9.66656 4.11648 9.66656 9.19552v127.82592c0 5.07904-4.33152 9.19552-9.66656 9.19552H880.06656z" fill="#90A4AE" p-id="4903"></path><path d="M952.13568 579.8912a4.84352 4.84352 0 1 1-9.68704-0.02048 4.84352 4.84352 0 0 1 9.68704 0.02048M977.58208 629.44256a4.84352 4.84352 0 1 1-9.68704-0.02048 4.84352 4.84352 0 0 1 9.68704 0.02048" fill="#92C110" p-id="4904"></path><path d="M902.4512 653.6192a4.84352 4.84352 0 1 1-9.68704-0.02048 4.84352 4.84352 0 0 1 9.68704 0.01024M926.68928 703.16032a4.84352 4.84352 0 1 1-9.68704 0 4.84352 4.84352 0 0 1 9.68704 0" fill="#5BA02E" p-id="4905"></path><path d="M6.36928 279.58272m14.81728 0l709.07904 0q14.81728 0 14.81728 14.81728l0 513.3824q0 14.81728-14.81728 14.81728l-709.07904 0q-14.81728 0-14.81728-14.81728l0-513.3824q0-14.81728 14.81728-14.81728Z" fill="#E2E7F2" p-id="4906"></path><path d="M221.67552 759.53152V389.0176c0-2.80576 2.27328-5.0688 5.0688-5.0688h447.8976c2.79552 0 5.0688 2.26304 5.0688 5.0688V758.7328a5.9392 5.9392 0 0 1-6.01088 5.85728H226.74432a5.0688 5.0688 0 0 1-5.0688-5.0688z" fill="#FFFFFF" p-id="4907"></path><path d="M266.8544 672.2048a5.9392 5.9392 0 0 1-6.00064-5.86752V428.4928a5.9392 5.9392 0 0 1 6.00064-5.85728h369.77664a5.9392 5.9392 0 0 1 6.01088 5.85728v237.85472a5.9392 5.9392 0 0 1-6.01088 5.85728h-369.7664z" fill="#CED7EC" p-id="4908"></path><path d="M313.06752 457.04192h-26.2144a3.62496 3.62496 0 0 1-3.67616-3.584c0-1.97632 1.64864-3.584 3.6864-3.584h26.2144c2.01728 0 3.66592 1.60768 3.66592 3.584 0 1.97632-1.6384 3.584-3.67616 3.584M313.4976 474.22464h-26.2144a3.62496 3.62496 0 0 1-3.6864-3.584c0-1.97632 1.64864-3.584 3.6864-3.584h26.2144c2.02752 0 3.66592 1.60768 3.66592 3.584 0 1.97632-1.6384 3.584-3.66592 3.584" fill="#B2BED9" p-id="4909"></path><path d="M260.85376 606.28992c39.7312 0 29.184-49.09056 89.36448-49.09056 60.17024 0 57.0368 43.88864 103.96672 43.88864 47.6672 0 44.51328-126.0544 90.18368-126.0544 48.19968 0 37.31456 114.21696 97.36192 114.21696v77.4144a5.9392 5.9392 0 0 1-6.01088 5.84704l-368.86528-0.3072a5.9392 5.9392 0 0 1-6.00064-5.85728v-60.0576z" fill="#78909C" p-id="4910"></path><path d="M19.51744 273.4592h700.70272c10.78272 0 19.51744 8.51968 19.51744 19.02592v56.71936H0V292.48512C0 281.97888 8.73472 273.4592 19.51744 273.4592z" fill="#455A64" p-id="4911"></path><path d="M28.34432 309.71904a13.93664 13.58848 0 1 0 27.87328 0 13.93664 13.58848 0 1 0-27.87328 0Z" fill="#FFFFFF" p-id="4912"></path><path d="M80.384 309.71904a13.93664 13.58848 0 1 0 27.87328 0 13.93664 13.58848 0 1 0-27.87328 0Z" fill="#FFFFFF" p-id="4913"></path><path d="M132.42368 309.71904a13.93664 13.58848 0 1 0 27.87328 0 13.93664 13.58848 0 1 0-27.87328 0Z" fill="#FFFFFF" p-id="4914"></path><path d="M253.30688 566.07744l-8.97024-6.57408 8.97024-6.5536 8.96 6.5536z" fill="#FFFFFF" p-id="4915"></path><path d="M65.75104 534.5792m4.00384 0l91.14624 0q4.00384 0 4.00384 4.00384l0 12.544q0 4.00384-4.00384 4.00384l-91.14624 0q-4.00384 0-4.00384-4.00384l0-12.544q0-4.00384 4.00384-4.00384Z" fill="#B1BCC9" p-id="4916"></path><path d="M65.75104 584.00768m3.9424 0l91.26912 0q3.9424 0 3.9424 3.9424l0 11.88864q0 3.9424-3.9424 3.9424l-91.26912 0q-3.9424 0-3.9424-3.9424l0-11.88864q0-3.9424 3.9424-3.9424Z" fill="#B1BCC9" p-id="4917"></path><path d="M65.75104 632.4224m3.9424 0l91.26912 0q3.9424 0 3.9424 3.9424l0 11.88864q0 3.9424-3.9424 3.9424l-91.26912 0q-3.9424 0-3.9424-3.9424l0-11.88864q0-3.9424 3.9424-3.9424Z" fill="#B1BCC9" p-id="4918"></path><path d="M63.2832 439.3472a52.04992 50.74944 0 1 0 104.09984 0 52.04992 50.74944 0 1 0-104.09984 0Z" fill="#FFFFFF" p-id="4919"></path><path d="M115.33312 490.10688a51.3024 51.3024 0 0 0 38.89152-17.65376c-7.60832-14.08-22.5792-22.89664-38.90176-22.89664-16.32256 0-31.29344 8.81664-38.90176 22.89664a51.32288 51.32288 0 0 0 38.912 17.65376z" fill="#455A64" p-id="4920"></path><path d="M96.03072 432.4864a19.57888 19.08736 0 1 0 39.15776 0 19.57888 19.08736 0 1 0-39.15776 0Z" fill="#455A64" p-id="4921"></path><path d="M547.54304 294.9632c0 82.23744 66.816 148.91008 149.22752 148.91008 82.42176 0 149.23776-66.6624 149.23776-148.91008C846.00832 212.736 779.19232 146.06336 696.77056 146.06336 614.35904 146.06336 547.54304 212.72576 547.54304 294.9632z" fill="#764ABC" p-id="4922"></path><path d="M664.97536 251.56608a31.744 31.744 0 0 1 31.77472-31.72352 31.744 31.744 0 0 1 31.78496 31.72352v15.89248h15.89248v-15.88224a47.60576 47.60576 0 0 0-47.64672-47.5648 47.60576 47.60576 0 0 0-47.64672 47.5648v15.88224h15.84128v-15.89248z" fill="#FFFFFF" p-id="4923"></path><path d="M765.44 363.63264H628.5312A5.95968 5.95968 0 0 1 622.57152 357.69344V270.71488C622.57152 267.44832 625.2544 264.77568 628.52096 264.77568h136.9088c3.2768 0 5.95968 2.6624 5.95968 5.9392v86.9888c0 3.25632-2.68288 5.92896-5.94944 5.92896" fill="#FFFFFF" p-id="4924"></path><path d="M697.1904 292.07552c3.1744 0 5.74464 2.49856 5.74464 5.5808l0.01024 18.33984a11.1616 11.1616 0 0 1-5.75488 20.74624 11.18208 11.18208 0 0 1-5.75488-20.74624v-18.33984a5.632 5.632 0 0 1 4.82304-5.50912l0.93184-0.07168z" fill="#764ABC" p-id="4925"></path></svg>